<?xml version="1.0" ?><svg width="50px" viewBox="0 0 32 32" style="enable-background:new 0 0 0 0;" xml:space="preserve" xmlns="http://www.w3.org/2000/svg"><style type="text/css">
	.st0{fill:#000000; background:#ffffff}
</style><title/><g><path class="st0" d="M26.49,30H5.5A3.35,3.35,0,0,1,3,29a3.35,3.35,0,0,1-1-2.48V5.5A3.35,3.35,0,0,1,3,3,3.35,3.35,0,0,1,5.5,2h21A3.35,3.35,0,0,1,29,3,3.35,3.35,0,0,1,30,5.5v21A3.52,3.52,0,0,1,26.49,30Zm-2.62-6.9a1,1,0,0,0,.57-.19,1.23,1.23,0,0,0,.7-1.1V9.93A.93.93,0,0,0,25,9.4a1.32,1.32,0,0,0-1.13-.74H7.93a.69.69,0,0,0-.3.1A1.26,1.26,0,0,0,6.77,9.9V21.81a1,1,0,0,0,.17.55,1.28,1.28,0,0,0,1.12.74Zm-1.36-2.66H9.41V13L16,18.21,22.51,13ZM16,14.81c-2.89-2.28-4.37-3.46-4.44-3.52H20.4Z"/></g></svg>