<?xml version="1.0" ?>
<svg width="50px" xmlns="http://www.w3.org/2000/svg" xmlns:xlink="http://www.w3.org/1999/xlink" x="0px" y="0px"  viewBox="0 0 32 32"
	 xml:space="preserve"> <style type="text/css"> .st0{fill:#000000; background:#ffffff} 
</style><title/>
		<g><path class="st0" d="M25.634,272.867c-6.45,0.104-11.945,2.751-15.96,8.562H9.461v-27.592H0.156v75.903h8.774v-6.873h0.21
			c1.903,3.065,5.814,8.456,15.223,8.456c18.815,0,24.314-17.653,24.314-30.863C48.677,284.919,40.326,272.867,25.634,272.867z
			 M24.153,323.292c-5.919,0-15.118-3.914-15.118-18.608c0-8.985,1.478-23.468,14.904-23.468c14.375,0,15.118,13.641,15.118,20.721
			C39.058,314.09,34.299,323.292,24.153,323.292z"/>
</g>
</svg>
